# xmcd
#
# Track frame offsets: 
#        150
#        17613
#        33541
#        54171
#        67847
#        82800
#        105404
#        126267
#        146769
#        163197
#        178474
#        198571
#        216786
#
# Disc length: 3107 seconds
#
# Revision: 0
# Processed by: cddbd v1.5.2PL0 Copyright (c) Steve Scherf et al.
# Submitted via: ExactAudioCopy v1.0b1
#
DISCID=b30c210d
DTITLE=Krzysztof Krawczyk - Leksykon Krzysztofa Krawczyka 15 - Country
DTITLE=album
DYEAR=2008
DGENRE=Country
TTITLE0=Nie przesadza się starych drzew
TTITLE1=Zwariowany czas
TTITLE2=Lot nr 205
TTITLE3=Niedziela w mieście
TTITLE4=Niepotrzebny mi żal
TTITLE5=Cierpliwie żyj aby żyć
TTITLE6=Pokochaj moje marzenia
TTITLE7=A jednak mi ciebie brakuje
TTITLE8=Nie można żyć samotnie
TTITLE9=Pospieszny pociąg ósma dwie
TTITLE10=Gdybyś tak dziś
TTITLE11=Modlitwa o dwa słowa
TTITLE12=Lucille
EXTD=
EXTT0=
EXTT1=
EXTT2=
EXTT3=
EXTT4=
EXTT5=
EXTT6=
EXTT7=
EXTT8=
EXTT9=
EXTT10=
EXTT11=
EXTT12=
PLAYORDER=
